<svg xmlns="http://www.w3.org/2000/svg" xmlns:xlink="http://www.w3.org/1999/xlink" width="346pt" height="78pt" viewBox="0 0 346 78"><g id="surface1"><path style=" stroke:none;fill-rule:nonzero;fill:rgb(11.764706%,11.764706%,10.980392%);fill-opacity:1;" d="M 82.347656 0.289062 L 89.027344 0.289062 L 95.035156 16.164062 L 100.570312 0.289062 L 107.40625 0.289062 L 107.40625 1.304688 L 105.738281 1.304688 C 105.324219 1.261719 104.90625 1.351562 104.546875 1.566406 C 104.320312 1.804688 104.207031 2.132812 104.242188 2.460938 L 104.242188 18.382812 C 104.230469 18.675781 104.371094 18.953125 104.613281 19.117188 C 105 19.320312 105.4375 19.410156 105.875 19.375 L 107.40625 19.375 L 107.40625 20.394531 L 98.222656 20.394531 L 98.222656 19.375 L 99.941406 19.375 C 100.324219 19.40625 100.707031 19.308594 101.03125 19.097656 C 101.25 18.933594 101.382812 18.671875 101.378906 18.394531 L 101.378906 1.308594 L 94.734375 20.394531 L 93.820312 20.394531 L 86.675781 1.390625 L 86.675781 16.003906 C 86.640625 16.671875 86.75 17.335938 87.003906 17.953125 C 87.207031 18.371094 87.53125 18.714844 87.929688 18.949219 C 88.558594 19.230469 89.242188 19.378906 89.933594 19.375 L 89.933594 20.394531 L 82.347656 20.394531 L 82.347656 19.375 C 83.589844 19.296875 84.429688 19.027344 84.871094 18.574219 C 85.3125 18.121094 85.539062 17.320312 85.539062 16.167969 L 85.539062 2.304688 C 85.5625 2.015625 85.445312 1.734375 85.226562 1.546875 C 84.871094 1.355469 84.464844 1.269531 84.058594 1.308594 L 82.347656 1.308594 Z M 82.347656 0.289062 "></path><path style=" stroke:none;fill-rule:nonzero;fill:rgb(11.764706%,11.764706%,10.980392%);fill-opacity:1;" d="M 122.457031 18.996094 L 122.941406 19.757812 C 122.386719 20.390625 121.585938 20.761719 120.746094 20.777344 C 120.183594 20.792969 119.636719 20.617188 119.191406 20.273438 C 118.675781 19.789062 118.296875 19.175781 118.09375 18.496094 C 117.449219 19.230469 116.683594 19.84375 115.828125 20.308594 C 115.089844 20.632812 114.289062 20.789062 113.480469 20.765625 C 112.175781 20.765625 111.1875 20.484375 110.507812 19.921875 C 109.851562 19.402344 109.472656 18.605469 109.492188 17.765625 C 109.492188 16.4375 110.269531 15.339844 111.820312 14.464844 C 113.371094 13.59375 115.433594 13.007812 118.011719 12.710938 L 118.011719 10.800781 C 118.011719 10.125 117.707031 9.480469 117.183594 9.046875 C 116.601562 8.546875 115.851562 8.285156 115.082031 8.3125 C 114.371094 8.292969 113.671875 8.460938 113.046875 8.800781 C 112.640625 9.046875 112.4375 9.285156 112.4375 9.519531 C 112.484375 9.757812 112.597656 9.980469 112.761719 10.160156 C 112.988281 10.433594 113.125 10.765625 113.152344 11.117188 C 113.164062 11.492188 113.023438 11.855469 112.757812 12.117188 C 112.480469 12.378906 112.109375 12.519531 111.730469 12.503906 C 111.304688 12.511719 110.894531 12.34375 110.597656 12.039062 C 110.289062 11.722656 110.125 11.296875 110.140625 10.855469 C 110.140625 9.957031 110.644531 9.140625 111.65625 8.398438 C 112.664062 7.65625 113.992188 7.28125 115.640625 7.277344 C 117.148438 7.277344 118.300781 7.601562 119.097656 8.257812 C 119.847656 8.828125 120.292969 9.71875 120.292969 10.664062 L 120.292969 17.625 C 120.257812 18.09375 120.363281 18.566406 120.589844 18.984375 C 120.75 19.257812 121.046875 19.429688 121.367188 19.433594 C 121.765625 19.402344 122.144531 19.25 122.457031 18.996094 Z M 118.003906 13.625 C 115.707031 13.941406 114.082031 14.457031 113.125 15.175781 C 112.40625 15.722656 112.007812 16.585938 112.050781 17.484375 C 112.015625 18.082031 112.214844 18.671875 112.609375 19.121094 C 112.984375 19.519531 113.511719 19.734375 114.058594 19.714844 C 115.113281 19.71875 116.121094 19.273438 116.835938 18.496094 C 117.621094 17.675781 118.042969 16.578125 118.007812 15.441406 L 118.007812 13.625 Z M 118.003906 13.625 "></path><path style=" stroke:none;fill-rule:nonzero;fill:rgb(11.764706%,11.764706%,10.980392%);fill-opacity:1;" d="M 129.277344 0.0585938 L 129.277344 18.519531 C 129.261719 18.738281 129.347656 18.953125 129.507812 19.101562 C 129.746094 19.285156 130.039062 19.382812 130.335938 19.371094 L 131.679688 19.371094 L 131.679688 20.390625 L 124.476562 20.390625 L 124.476562 19.371094 L 125.753906 19.371094 C 126.089844 19.398438 126.421875 19.292969 126.679688 19.074219 C 126.894531 18.847656 127.003906 18.542969 126.984375 18.230469 L 126.984375 2.730469 C 127.019531 2.363281 126.882812 1.996094 126.617188 1.738281 C 126.273438 1.445312 125.835938 1.289062 125.382812 1.300781 L 124.246094 1.300781 L 124.246094 0.285156 Z M 129.277344 0.0585938 "></path><path style=" stroke:none;fill-rule:nonzero;fill:rgb(11.764706%,11.764706%,10.980392%);fill-opacity:1;" d="M 136.574219 2.464844 L 137.480469 2.464844 L 137.480469 7.660156 L 141.589844 7.660156 L 141.589844 8.910156 L 137.480469 8.910156 L 137.480469 17.089844 C 137.441406 17.675781 137.621094 18.253906 137.980469 18.714844 C 138.300781 19.085938 138.769531 19.292969 139.257812 19.28125 C 139.890625 19.273438 140.480469 18.953125 140.832031 18.425781 C 141.265625 17.851562 141.519531 16.90625 141.589844 15.597656 L 142.5 15.597656 C 142.449219 17.292969 142.0625 18.550781 141.347656 19.367188 C 140.65625 20.179688 139.632812 20.632812 138.566406 20.597656 C 137.667969 20.648438 136.785156 20.335938 136.113281 19.734375 C 135.515625 19.140625 135.191406 18.316406 135.222656 17.472656 L 135.222656 8.90625 L 133.011719 8.90625 L 133.011719 7.957031 C 133.914062 7.84375 134.738281 7.394531 135.316406 6.695312 C 136.089844 5.6875 136.511719 4.277344 136.574219 2.464844 Z M 136.574219 2.464844 "></path><path style=" stroke:none;fill-rule:nonzero;fill:rgb(11.764706%,11.764706%,10.980392%);fill-opacity:1;" d="M 157.460938 18.996094 L 157.949219 19.757812 C 157.390625 20.390625 156.59375 20.761719 155.753906 20.777344 C 155.1875 20.796875 154.632812 20.621094 154.1875 20.273438 C 153.671875 19.796875 153.289062 19.191406 153.082031 18.519531 C 152.441406 19.253906 151.675781 19.867188 150.816406 20.335938 C 150.078125 20.65625 149.277344 20.8125 148.46875 20.792969 C 147.167969 20.792969 146.179688 20.511719 145.5 19.949219 C 144.839844 19.429688 144.464844 18.628906 144.484375 17.789062 C 144.484375 16.464844 145.257812 15.363281 146.808594 14.492188 C 148.359375 13.617188 150.425781 13.03125 153 12.734375 L 153 10.800781 C 153 10.125 152.695312 9.480469 152.175781 9.046875 C 151.589844 8.546875 150.839844 8.285156 150.070312 8.3125 C 149.363281 8.292969 148.660156 8.460938 148.035156 8.800781 C 147.628906 9.046875 147.425781 9.285156 147.425781 9.519531 C 147.472656 9.757812 147.585938 9.980469 147.753906 10.160156 C 147.984375 10.429688 148.125 10.765625 148.160156 11.117188 C 148.171875 11.492188 148.03125 11.855469 147.765625 12.117188 C 147.488281 12.378906 147.117188 12.519531 146.734375 12.503906 C 146.308594 12.511719 145.898438 12.34375 145.605469 12.039062 C 145.296875 11.722656 145.132812 11.296875 145.148438 10.855469 C 145.148438 9.957031 145.652344 9.140625 146.664062 8.398438 C 147.671875 7.65625 148.992188 7.285156 150.628906 7.285156 C 152.140625 7.285156 153.292969 7.609375 154.085938 8.261719 C 154.839844 8.835938 155.28125 9.722656 155.28125 10.667969 L 155.28125 17.625 C 155.246094 18.09375 155.351562 18.566406 155.582031 18.984375 C 155.742188 19.257812 156.035156 19.429688 156.355469 19.433594 C 156.761719 19.40625 157.148438 19.253906 157.460938 18.996094 Z M 153.011719 13.625 C 150.71875 13.941406 149.089844 14.457031 148.128906 15.175781 C 147.414062 15.722656 147.011719 16.585938 147.058594 17.484375 C 147.023438 18.082031 147.222656 18.671875 147.617188 19.121094 C 147.992188 19.519531 148.519531 19.734375 149.066406 19.714844 C 150.121094 19.71875 151.128906 19.273438 151.839844 18.496094 C 152.625 17.675781 153.050781 16.578125 153.015625 15.441406 L 153.015625 13.625 Z M 153.011719 13.625 "></path><path style=" stroke:none;fill-rule:nonzero;fill:rgb(11.764706%,11.764706%,10.980392%);fill-opacity:1;" d="M 83.335938 26.351562 L 99.652344 26.351562 L 99.921875 33.3125 L 98.988281 33.3125 C 98.570312 30.917969 97.988281 29.359375 97.234375 28.632812 C 96.378906 27.789062 95.152344 27.371094 93.558594 27.371094 L 90.347656 27.371094 C 90.089844 27.34375 89.835938 27.425781 89.644531 27.59375 C 89.488281 27.78125 89.410156 28.023438 89.429688 28.269531 L 89.429688 35.542969 L 91.152344 35.542969 C 92.019531 35.582031 92.859375 35.234375 93.445312 34.589844 C 94.015625 33.953125 94.320312 32.976562 94.363281 31.65625 L 95.34375 31.65625 L 95.34375 40.722656 L 94.363281 40.722656 C 94.300781 39.21875 93.996094 38.144531 93.445312 37.503906 C 92.867188 36.847656 92.023438 36.492188 91.152344 36.535156 L 89.429688 36.535156 L 89.429688 44.203125 C 89.390625 44.554688 89.507812 44.90625 89.753906 45.160156 C 90.085938 45.378906 90.484375 45.476562 90.878906 45.441406 L 92.980469 45.441406 L 92.980469 46.457031 L 83.335938 46.457031 L 83.335938 45.441406 L 85.398438 45.441406 C 85.714844 45.46875 86.035156 45.378906 86.289062 45.1875 C 86.484375 44.960938 86.578125 44.664062 86.550781 44.363281 L 86.550781 28.378906 C 86.578125 28.089844 86.476562 27.804688 86.273438 27.601562 C 85.984375 27.417969 85.644531 27.335938 85.304688 27.371094 L 83.335938 27.371094 Z M 83.335938 26.351562 "></path><path style=" stroke:none;fill-rule:nonzero;fill:rgb(11.764706%,11.764706%,10.980392%);fill-opacity:1;" d="M 105.691406 33.488281 L 105.691406 41.917969 C 105.691406 42.949219 105.949219 43.746094 106.46875 44.308594 C 106.984375 44.871094 107.71875 45.175781 108.480469 45.152344 C 109.480469 45.15625 110.429688 44.703125 111.058594 43.921875 C 111.777344 43.0625 112.152344 41.964844 112.109375 40.84375 L 112.109375 36.082031 C 112.128906 35.6875 111.953125 35.3125 111.640625 35.070312 C 111.332031 34.835938 110.730469 34.703125 109.84375 34.671875 L 109.84375 33.71875 L 114.304688 33.488281 L 114.304688 43.945312 C 114.277344 44.351562 114.425781 44.753906 114.710938 45.050781 C 115.023438 45.324219 115.433594 45.460938 115.851562 45.4375 L 116.648438 45.4375 L 116.648438 46.34375 L 112.375 46.441406 L 112.105469 43.941406 C 111.460938 44.738281 110.6875 45.421875 109.820312 45.964844 C 109.117188 46.402344 108.3125 46.636719 107.488281 46.648438 C 106.410156 46.675781 105.367188 46.257812 104.605469 45.492188 C 103.820312 44.730469 103.425781 43.441406 103.425781 41.628906 L 103.425781 36.085938 C 103.449219 35.636719 103.226562 35.210938 102.84375 34.972656 C 102.574219 34.789062 102.019531 34.691406 101.175781 34.675781 L 101.175781 33.722656 Z M 105.691406 33.488281 "></path><path style=" stroke:none;fill-rule:nonzero;fill:rgb(11.764706%,11.764706%,10.980392%);fill-opacity:1;" d="M 118.09375 33.71875 L 122.648438 33.488281 L 122.648438 38.640625 C 123.132812 36.945312 123.71875 35.65625 124.398438 34.777344 C 124.992188 33.957031 125.941406 33.472656 126.949219 33.46875 C 127.5625 33.441406 128.160156 33.671875 128.597656 34.101562 C 129.023438 34.558594 129.246094 35.171875 129.214844 35.796875 C 129.246094 36.273438 129.097656 36.75 128.800781 37.125 C 128.542969 37.4375 128.15625 37.613281 127.75 37.601562 C 127.378906 37.613281 127.019531 37.464844 126.765625 37.191406 C 126.503906 36.886719 126.371094 36.492188 126.394531 36.089844 C 126.394531 35.796875 126.46875 35.503906 126.609375 35.246094 C 126.699219 35.117188 126.769531 34.976562 126.8125 34.824219 C 126.8125 34.6875 126.726562 34.621094 126.554688 34.621094 C 126.070312 34.675781 125.621094 34.910156 125.292969 35.273438 C 124.589844 35.96875 124.070312 36.828125 123.785156 37.777344 C 123.316406 39.046875 123.042969 40.378906 122.972656 41.730469 L 122.972656 44.484375 C 122.960938 44.757812 123.082031 45.019531 123.300781 45.1875 C 123.636719 45.378906 124.023438 45.464844 124.410156 45.433594 L 126.027344 45.433594 L 126.027344 46.449219 L 118.175781 46.449219 L 118.175781 45.433594 L 119.4375 45.433594 C 119.777344 45.457031 120.117188 45.367188 120.402344 45.179688 C 120.601562 45.042969 120.722656 44.816406 120.726562 44.574219 L 120.726562 36.457031 C 120.769531 35.976562 120.628906 35.492188 120.335938 35.105469 C 120.039062 34.808594 119.628906 34.652344 119.210938 34.679688 L 118.09375 34.679688 Z M 118.09375 33.71875 "></path><path style=" stroke:none;fill-rule:nonzero;fill:rgb(11.764706%,11.764706%,10.980392%);fill-opacity:1;" d="M 133.984375 28.527344 L 134.890625 28.527344 L 134.890625 33.722656 L 139.003906 33.722656 L 139.003906 34.972656 L 134.890625 34.972656 L 134.890625 43.144531 C 134.851562 43.726562 135.03125 44.308594 135.394531 44.769531 C 135.710938 45.140625 136.179688 45.347656 136.667969 45.335938 C 137.300781 45.328125 137.886719 45.007812 138.242188 44.484375 C 138.675781 43.914062 138.929688 42.976562 139.003906 41.675781 L 139.910156 41.675781 C 139.859375 43.371094 139.472656 44.628906 138.757812 45.445312 C 138.066406 46.257812 137.042969 46.710938 135.976562 46.675781 C 135.078125 46.726562 134.195312 46.414062 133.523438 45.8125 C 132.925781 45.214844 132.601562 44.394531 132.636719 43.550781 L 132.636719 34.972656 L 130.421875 34.972656 L 130.421875 34.023438 C 131.324219 33.910156 132.148438 33.457031 132.726562 32.757812 C 133.5 31.75 133.917969 30.339844 133.984375 28.527344 Z M 133.984375 28.527344 "></path><path style=" stroke:none;fill-rule:nonzero;fill:rgb(11.764706%,11.764706%,10.980392%);fill-opacity:1;" d="M 141.117188 26.351562 L 145.933594 26.121094 L 145.933594 35.953125 C 146.511719 35.164062 147.246094 34.5 148.089844 34.003906 C 148.835938 33.578125 149.679688 33.355469 150.542969 33.359375 C 151.3125 33.347656 152.074219 33.546875 152.738281 33.941406 C 153.320312 34.339844 153.773438 34.902344 154.035156 35.558594 C 154.410156 36.421875 154.59375 37.351562 154.570312 38.292969 L 154.570312 44.339844 C 154.542969 44.652344 154.652344 44.964844 154.871094 45.191406 C 155.140625 45.386719 155.472656 45.480469 155.804688 45.453125 L 156.890625 45.453125 L 156.890625 46.472656 L 150.015625 46.472656 L 150.015625 45.453125 L 150.777344 45.453125 C 151.195312 45.496094 151.617188 45.398438 151.976562 45.175781 C 152.210938 44.964844 152.335938 44.65625 152.3125 44.339844 L 152.3125 38.273438 C 152.363281 37.382812 152.09375 36.5 151.542969 35.796875 C 151.0625 35.214844 150.339844 34.886719 149.585938 34.902344 C 148.96875 34.902344 148.367188 35.074219 147.851562 35.40625 C 147.273438 35.789062 146.808594 36.316406 146.492188 36.933594 C 146.128906 37.597656 145.9375 38.34375 145.9375 39.101562 L 145.9375 44.1875 C 145.902344 44.53125 146.003906 44.878906 146.222656 45.152344 C 146.484375 45.367188 146.820312 45.46875 147.15625 45.4375 L 148.230469 45.4375 L 148.230469 46.453125 L 141.527344 46.453125 L 141.527344 45.4375 L 142.289062 45.4375 C 142.679688 45.472656 143.074219 45.363281 143.390625 45.128906 C 143.625 44.875 143.742188 44.53125 143.714844 44.1875 L 143.714844 28.988281 C 143.75 28.542969 143.59375 28.101562 143.289062 27.773438 C 142.941406 27.484375 142.496094 27.339844 142.046875 27.371094 L 141.125 27.371094 L 141.125 26.351562 Z M 141.117188 26.351562 "></path><path style=" stroke:none;fill-rule:nonzero;fill:rgb(11.764706%,11.764706%,10.980392%);fill-opacity:1;" d="M 170.332031 40.179688 L 161.222656 40.179688 C 161.265625 42.117188 161.628906 43.484375 162.308594 44.285156 C 163.042969 45.160156 164.136719 45.65625 165.28125 45.628906 C 167.054688 45.628906 168.476562 44.617188 169.550781 42.597656 L 170.433594 42.976562 C 169.113281 45.554688 167.207031 46.839844 164.710938 46.839844 C 163.082031 46.871094 161.519531 46.199219 160.417969 44.992188 C 159.25 43.761719 158.667969 42.183594 158.667969 40.261719 C 158.667969 38.199219 159.238281 36.527344 160.386719 35.253906 C 161.441406 34.019531 162.988281 33.320312 164.609375 33.34375 C 165.746094 33.316406 166.863281 33.648438 167.800781 34.296875 C 168.734375 34.980469 169.4375 35.933594 169.820312 37.027344 C 170.164062 38.042969 170.339844 39.105469 170.332031 40.179688 Z M 161.222656 39.210938 L 166.726562 39.210938 C 167.027344 39.226562 167.3125 39.097656 167.5 38.863281 C 167.714844 38.527344 167.808594 38.128906 167.773438 37.730469 C 167.796875 36.796875 167.464844 35.886719 166.84375 35.1875 C 166.308594 34.527344 165.503906 34.140625 164.652344 34.132812 C 163.699219 34.140625 162.804688 34.613281 162.257812 35.398438 C 161.601562 36.253906 161.261719 37.527344 161.234375 39.214844 Z M 161.222656 39.210938 "></path><path style=" stroke:none;fill-rule:nonzero;fill:rgb(11.764706%,11.764706%,10.980392%);fill-opacity:1;" d="M 172.097656 33.71875 L 176.65625 33.488281 L 176.65625 38.640625 C 177.140625 36.945312 177.726562 35.65625 178.40625 34.777344 C 179 33.957031 179.949219 33.472656 180.957031 33.46875 C 181.570312 33.441406 182.167969 33.671875 182.605469 34.101562 C 183.03125 34.558594 183.25 35.171875 183.222656 35.796875 C 183.253906 36.273438 183.105469 36.75 182.808594 37.125 C 182.546875 37.4375 182.160156 37.613281 181.757812 37.601562 C 181.386719 37.613281 181.027344 37.464844 180.773438 37.191406 C 180.511719 36.886719 180.378906 36.492188 180.402344 36.089844 C 180.402344 35.796875 180.476562 35.503906 180.617188 35.246094 C 180.707031 35.117188 180.773438 34.976562 180.820312 34.824219 C 180.820312 34.6875 180.734375 34.621094 180.5625 34.621094 C 180.074219 34.675781 179.625 34.910156 179.300781 35.273438 C 178.597656 35.96875 178.078125 36.828125 177.792969 37.777344 C 177.324219 39.046875 177.050781 40.378906 176.980469 41.730469 L 176.980469 44.484375 C 176.964844 44.757812 177.089844 45.019531 177.308594 45.1875 C 177.644531 45.378906 178.03125 45.464844 178.417969 45.433594 L 180.03125 45.433594 L 180.03125 46.449219 L 172.175781 46.449219 L 172.175781 45.433594 L 173.4375 45.433594 C 173.777344 45.457031 174.117188 45.367188 174.402344 45.179688 C 174.601562 45.042969 174.722656 44.816406 174.726562 44.574219 L 174.726562 36.457031 C 174.769531 35.976562 174.628906 35.492188 174.335938 35.105469 C 174.039062 34.808594 173.628906 34.652344 173.210938 34.679688 L 172.097656 34.679688 Z M 172.097656 33.71875 "></path><path style=" stroke:none;fill-rule:nonzero;fill:rgb(11.764706%,11.764706%,10.980392%);fill-opacity:1;" d="M 200.972656 34.875 C 202.140625 36.871094 203.039062 38.324219 203.667969 39.238281 C 204.304688 40.167969 204.988281 41.066406 205.714844 41.925781 C 207.132812 40.167969 207.839844 38.734375 207.839844 37.632812 C 207.859375 37.175781 207.664062 36.738281 207.308594 36.449219 C 206.847656 36.125 206.285156 35.96875 205.722656 36.011719 L 204.996094 36.011719 L 204.996094 35.074219 L 212.539062 35.074219 L 212.539062 36.011719 L 211.96875 36.011719 C 211.554688 36 211.144531 36.074219 210.761719 36.230469 C 210.425781 36.390625 210.125 36.621094 209.886719 36.90625 C 209.492188 37.421875 209.167969 37.984375 208.914062 38.582031 C 208.25 40.054688 207.421875 41.445312 206.441406 42.726562 C 207.675781 43.996094 208.757812 44.632812 209.683594 44.632812 C 210.226562 44.640625 210.746094 44.394531 211.082031 43.964844 C 211.460938 43.523438 211.710938 42.757812 211.835938 41.667969 L 212.707031 41.667969 C 212.707031 43.363281 212.34375 44.652344 211.613281 45.53125 C 210.949219 46.378906 209.925781 46.867188 208.851562 46.847656 C 208.1875 46.839844 207.535156 46.675781 206.945312 46.375 C 206.089844 45.90625 205.304688 45.324219 204.605469 44.644531 C 203.757812 45.355469 202.816406 45.9375 201.800781 46.375 C 200.957031 46.695312 200.058594 46.855469 199.15625 46.847656 C 197.578125 46.898438 196.046875 46.304688 194.914062 45.203125 C 193.816406 44.148438 193.207031 42.679688 193.242188 41.15625 C 193.222656 39.960938 193.59375 38.792969 194.292969 37.824219 C 194.992188 36.835938 196.269531 35.859375 198.121094 34.890625 C 197.261719 33.121094 196.832031 31.648438 196.832031 30.472656 C 196.816406 29.234375 197.324219 28.046875 198.234375 27.207031 C 199.144531 26.316406 200.371094 25.832031 201.644531 25.863281 C 202.925781 25.863281 203.9375 26.195312 204.683594 26.855469 C 205.425781 27.527344 205.832031 28.492188 205.792969 29.496094 C 205.792969 30.542969 205.421875 31.558594 204.742188 32.355469 C 204.015625 33.207031 202.765625 34.050781 200.972656 34.875 Z M 198.601562 35.929688 C 196.695312 36.988281 195.742188 38.261719 195.738281 39.75 C 195.738281 40.890625 196.183594 42.089844 197.074219 43.347656 C 197.964844 44.601562 199.074219 45.230469 200.402344 45.230469 C 201.535156 45.230469 202.6875 44.769531 203.863281 43.855469 C 203.023438 42.855469 202.234375 41.816406 201.503906 40.738281 C 200.796875 39.722656 199.828125 38.121094 198.601562 35.9375 Z M 200.460938 33.820312 C 201.761719 33.25 202.65625 32.640625 203.144531 31.992188 C 203.640625 31.316406 203.898438 30.496094 203.875 29.660156 C 203.917969 28.921875 203.675781 28.195312 203.203125 27.625 C 202.769531 27.132812 202.140625 26.859375 201.484375 26.878906 C 200.84375 26.859375 200.21875 27.113281 199.777344 27.582031 C 199.308594 28.097656 199.0625 28.777344 199.097656 29.476562 C 199.101562 30.648438 199.558594 32.101562 200.460938 33.828125 Z M 200.460938 33.820312 "></path><path style=" stroke:none;fill-rule:nonzero;fill:rgb(11.764706%,11.764706%,10.980392%);fill-opacity:1;" d="M 223.097656 26.351562 L 231.667969 26.351562 L 231.667969 27.371094 L 230.09375 27.371094 C 229.542969 27.371094 229.183594 27.46875 229.015625 27.660156 C 228.847656 27.855469 228.761719 28.328125 228.761719 29.066406 L 228.761719 35.265625 L 237.9375 35.265625 L 237.9375 29.078125 C 237.9375 28.300781 237.855469 27.820312 237.699219 27.640625 C 237.539062 27.460938 237.164062 27.371094 236.582031 27.371094 L 235.117188 27.371094 L 235.117188 26.351562 L 243.632812 26.351562 L 243.632812 27.371094 L 242.070312 27.371094 C 241.789062 27.347656 241.507812 27.398438 241.25 27.519531 C 241.074219 27.648438 240.9375 27.828125 240.867188 28.035156 C 240.792969 28.433594 240.765625 28.839844 240.785156 29.246094 L 240.785156 43.707031 C 240.785156 44.410156 240.84375 44.828125 240.960938 44.972656 C 241.195312 45.28125 241.625 45.4375 242.25 45.4375 L 243.652344 45.4375 L 243.652344 46.453125 L 235.132812 46.453125 L 235.132812 45.4375 L 236.597656 45.4375 C 237.175781 45.4375 237.570312 45.277344 237.777344 44.960938 C 237.898438 44.789062 237.953125 44.335938 237.953125 43.601562 L 237.953125 36.613281 L 228.765625 36.613281 L 228.765625 43.710938 C 228.765625 44.414062 228.820312 44.847656 228.925781 44.988281 C 229.222656 45.316406 229.65625 45.484375 230.09375 45.441406 L 231.667969 45.441406 L 231.667969 46.457031 L 223.097656 46.457031 L 223.097656 45.441406 L 224.738281 45.441406 C 224.980469 45.453125 225.226562 45.390625 225.4375 45.265625 C 225.613281 45.140625 225.746094 44.964844 225.816406 44.761719 C 225.878906 44.378906 225.902344 43.992188 225.882812 43.605469 L 225.882812 29.085938 C 225.882812 28.335938 225.796875 27.859375 225.628906 27.683594 C 225.460938 27.503906 225.097656 27.390625 224.535156 27.390625 L 223.101562 27.390625 L 223.101562 26.351562 Z M 223.097656 26.351562 "></path><path style=" stroke:none;fill-rule:nonzero;fill:rgb(11.764706%,11.764706%,10.980392%);fill-opacity:1;" d="M 245.601562 33.71875 L 250.660156 33.570312 L 250.660156 44.527344 C 250.636719 44.761719 250.714844 44.992188 250.878906 45.164062 C 251.097656 45.351562 251.378906 45.449219 251.667969 45.4375 L 253.101562 45.4375 L 253.101562 46.453125 L 245.875 46.453125 L 245.875 45.4375 L 247.214844 45.4375 C 247.53125 45.488281 247.851562 45.382812 248.082031 45.15625 C 248.308594 44.933594 248.414062 44.613281 248.367188 44.292969 L 248.367188 36.273438 C 248.402344 35.84375 248.242188 35.421875 247.933594 35.125 C 247.566406 34.839844 247.109375 34.703125 246.644531 34.738281 L 245.59375 34.738281 Z M 249.125 26.121094 C 249.96875 26.148438 250.644531 26.828125 250.660156 27.675781 C 250.648438 28.507812 249.972656 29.179688 249.140625 29.183594 C 248.519531 29.195312 247.957031 28.828125 247.71875 28.253906 C 247.480469 27.679688 247.621094 27.015625 248.066406 26.585938 C 248.339844 26.289062 248.722656 26.121094 249.125 26.121094 Z M 249.125 26.121094 "></path><path style=" stroke:none;fill-rule:nonzero;fill:rgb(11.764706%,11.764706%,10.980392%);fill-opacity:1;" d="M 264.332031 34.441406 C 265.234375 33.523438 266.066406 33.066406 266.824219 33.066406 C 267.242188 33.050781 267.648438 33.210938 267.949219 33.5 C 268.242188 33.773438 268.402344 34.15625 268.398438 34.554688 C 268.410156 34.863281 268.300781 35.164062 268.09375 35.390625 C 267.921875 35.605469 267.667969 35.734375 267.394531 35.742188 C 266.878906 35.742188 266.53125 35.425781 266.34375 34.789062 C 266.269531 34.519531 266.148438 34.382812 265.992188 34.382812 C 265.585938 34.4375 265.222656 34.660156 264.988281 34.996094 C 265.320312 35.421875 265.585938 35.894531 265.789062 36.398438 C 265.933594 36.808594 266.007812 37.238281 266.003906 37.671875 C 266.019531 38.40625 265.824219 39.132812 265.433594 39.757812 C 264.945312 40.4375 264.28125 40.980469 263.519531 41.324219 C 262.742188 41.761719 261.875 42 260.988281 42.027344 L 259.507812 42.027344 C 258.460938 42.027344 257.757812 42.132812 257.40625 42.351562 C 257.070312 42.566406 256.871094 42.945312 256.890625 43.347656 C 256.878906 43.671875 257.039062 43.984375 257.3125 44.160156 C 257.59375 44.351562 258.121094 44.445312 258.898438 44.445312 L 262.25 44.378906 C 263.941406 44.378906 265.160156 44.664062 265.902344 45.230469 C 266.640625 45.773438 267.058594 46.644531 267.023438 47.5625 C 267.03125 48.621094 266.5625 49.632812 265.746094 50.308594 C 264.5625 51.355469 262.792969 51.882812 260.445312 51.882812 C 258.5 51.882812 257.058594 51.527344 256.117188 50.808594 C 255.375 50.246094 255.003906 49.617188 255.003906 48.921875 C 255.019531 48.351562 255.273438 47.820312 255.707031 47.453125 C 256.179688 47.007812 256.980469 46.675781 258.101562 46.457031 C 257.355469 46.3125 256.660156 45.984375 256.078125 45.5 C 255.636719 45.101562 255.386719 44.527344 255.398438 43.929688 C 255.390625 43.371094 255.585938 42.832031 255.949219 42.410156 C 256.476562 41.882812 257.132812 41.5 257.855469 41.304688 C 257.160156 40.941406 256.5625 40.414062 256.121094 39.765625 C 255.726562 39.144531 255.523438 38.425781 255.539062 37.691406 C 255.523438 36.488281 256.058594 35.347656 256.988281 34.589844 C 257.957031 33.757812 259.214844 33.339844 260.761719 33.339844 C 261.378906 33.339844 262 33.429688 262.59375 33.609375 C 263.210938 33.800781 263.796875 34.078125 264.332031 34.441406 Z M 261.566406 46.472656 C 259.902344 46.472656 258.714844 46.707031 258.003906 47.175781 C 257.304688 47.636719 256.953125 48.191406 256.953125 48.847656 C 256.941406 49.441406 257.246094 49.996094 257.753906 50.300781 C 258.453125 50.769531 259.464844 51.003906 260.761719 51.003906 C 262.320312 51.003906 263.488281 50.742188 264.265625 50.226562 C 265.046875 49.710938 265.441406 49.132812 265.449219 48.5 C 265.453125 48.117188 265.332031 47.746094 265.097656 47.445312 C 264.792969 47.085938 264.386719 46.828125 263.929688 46.710938 C 263.15625 46.519531 262.363281 46.4375 261.566406 46.472656 Z M 260.761719 34.210938 C 260 34.195312 259.265625 34.519531 258.769531 35.101562 C 258.242188 35.695312 257.984375 36.527344 257.984375 37.597656 C 257.984375 38.738281 258.246094 39.625 258.769531 40.253906 C 259.265625 40.847656 259.996094 41.195312 260.765625 41.199219 C 261.539062 41.207031 262.273438 40.871094 262.777344 40.285156 C 263.296875 39.671875 263.558594 38.792969 263.558594 37.652344 C 263.609375 36.746094 263.328125 35.851562 262.769531 35.136719 C 262.277344 34.539062 261.539062 34.195312 260.761719 34.210938 Z M 260.761719 34.210938 "></path><path style=" stroke:none;fill-rule:nonzero;fill:rgb(11.764706%,11.764706%,10.980392%);fill-opacity:1;" d="M 269.1875 26.351562 L 274.003906 26.121094 L 274.003906 35.953125 C 274.582031 35.164062 275.3125 34.5 276.15625 34.003906 C 276.90625 33.578125 277.75 33.355469 278.609375 33.359375 C 279.382812 33.347656 280.140625 33.546875 280.808594 33.941406 C 281.390625 34.339844 281.839844 34.902344 282.105469 35.558594 C 282.480469 36.421875 282.664062 37.351562 282.640625 38.292969 L 282.640625 44.339844 C 282.609375 44.652344 282.71875 44.964844 282.9375 45.191406 C 283.207031 45.386719 283.539062 45.480469 283.875 45.453125 L 284.960938 45.453125 L 284.960938 46.472656 L 278.085938 46.472656 L 278.085938 45.453125 L 278.84375 45.453125 C 279.265625 45.496094 279.6875 45.398438 280.046875 45.175781 C 280.289062 44.96875 280.417969 44.660156 280.398438 44.339844 L 280.398438 38.273438 C 280.453125 37.382812 280.179688 36.5 279.628906 35.796875 C 279.148438 35.214844 278.425781 34.886719 277.671875 34.902344 C 277.050781 34.898438 276.441406 35.070312 275.917969 35.40625 C 275.34375 35.789062 274.875 36.316406 274.5625 36.933594 C 274.195312 37.597656 274.003906 38.34375 274.003906 39.101562 L 274.003906 44.1875 C 273.972656 44.53125 274.074219 44.878906 274.289062 45.152344 C 274.550781 45.367188 274.886719 45.46875 275.226562 45.4375 L 276.3125 45.4375 L 276.3125 46.453125 L 269.597656 46.453125 L 269.597656 45.4375 L 270.359375 45.4375 C 270.75 45.472656 271.140625 45.363281 271.457031 45.128906 C 271.695312 44.875 271.8125 44.53125 271.785156 44.1875 L 271.785156 28.988281 C 271.820312 28.542969 271.664062 28.101562 271.355469 27.773438 C 271.011719 27.484375 270.566406 27.339844 270.117188 27.371094 L 269.195312 27.371094 L 269.195312 26.351562 Z M 269.1875 26.351562 "></path><path style=" stroke:none;fill-rule:nonzero;fill:rgb(11.764706%,11.764706%,10.980392%);fill-opacity:1;" d="M 298.402344 40.179688 L 289.292969 40.179688 C 289.335938 42.117188 289.699219 43.484375 290.378906 44.285156 C 291.113281 45.160156 292.207031 45.65625 293.347656 45.628906 C 295.121094 45.628906 296.546875 44.617188 297.621094 42.597656 L 298.503906 42.976562 C 297.183594 45.554688 295.277344 46.839844 292.78125 46.839844 C 291.152344 46.871094 289.589844 46.199219 288.488281 44.992188 C 287.320312 43.761719 286.738281 42.183594 286.738281 40.261719 C 286.738281 38.199219 287.308594 36.527344 288.453125 35.253906 C 289.511719 34.019531 291.058594 33.320312 292.679688 33.34375 C 293.816406 33.316406 294.933594 33.648438 295.867188 34.296875 C 296.800781 34.980469 297.507812 35.933594 297.890625 37.027344 C 298.234375 38.042969 298.410156 39.105469 298.402344 40.179688 Z M 289.292969 39.210938 L 294.808594 39.210938 C 295.101562 39.226562 295.382812 39.101562 295.570312 38.878906 C 295.78125 38.539062 295.878906 38.140625 295.839844 37.746094 C 295.863281 36.808594 295.53125 35.902344 294.910156 35.203125 C 294.375 34.539062 293.574219 34.152344 292.722656 34.148438 C 291.765625 34.15625 290.875 34.625 290.328125 35.414062 C 289.667969 36.261719 289.328125 37.527344 289.300781 39.214844 Z M 289.292969 39.210938 "></path><path style=" stroke:none;fill-rule:nonzero;fill:rgb(11.764706%,11.764706%,10.980392%);fill-opacity:1;" d="M 300.167969 33.71875 L 304.722656 33.488281 L 304.722656 38.640625 C 305.210938 36.945312 305.792969 35.65625 306.476562 34.777344 C 307.070312 33.957031 308.015625 33.472656 309.027344 33.46875 C 309.640625 33.441406 310.238281 33.671875 310.675781 34.101562 C 311.097656 34.558594 311.320312 35.171875 311.289062 35.796875 C 311.320312 36.273438 311.175781 36.75 310.878906 37.125 C 310.617188 37.4375 310.230469 37.613281 309.824219 37.601562 C 309.453125 37.613281 309.09375 37.464844 308.839844 37.191406 C 308.582031 36.886719 308.449219 36.492188 308.46875 36.089844 C 308.46875 35.796875 308.542969 35.503906 308.6875 35.246094 C 308.777344 35.117188 308.84375 34.976562 308.890625 34.824219 C 308.890625 34.6875 308.800781 34.621094 308.632812 34.621094 C 308.144531 34.675781 307.695312 34.910156 307.371094 35.273438 C 306.679688 35.984375 306.179688 36.855469 305.917969 37.8125 C 305.449219 39.082031 305.175781 40.414062 305.105469 41.765625 L 305.105469 44.484375 C 305.089844 44.757812 305.214844 45.019531 305.429688 45.1875 C 305.769531 45.378906 306.15625 45.464844 306.542969 45.433594 L 308.15625 45.433594 L 308.15625 46.449219 L 300.246094 46.449219 L 300.246094 45.433594 L 301.507812 45.433594 C 301.847656 45.457031 302.183594 45.367188 302.46875 45.179688 C 302.671875 45.042969 302.792969 44.816406 302.796875 44.574219 L 302.796875 36.457031 C 302.839844 35.976562 302.707031 35.496094 302.414062 35.105469 C 302.117188 34.808594 301.707031 34.652344 301.289062 34.679688 L 300.179688 34.679688 Z M 300.167969 33.71875 "></path><path style=" stroke:none;fill-rule:nonzero;fill:rgb(11.764706%,11.764706%,10.980392%);fill-opacity:1;" d="M 83.714844 52.414062 L 99.609375 52.414062 L 99.988281 59.195312 L 99.082031 59.195312 C 98.722656 57.058594 98.152344 55.5625 97.367188 54.710938 C 96.585938 53.859375 95.46875 53.390625 94.3125 53.433594 L 90.382812 53.433594 C 90.117188 53.414062 89.859375 53.507812 89.667969 53.691406 C 89.488281 53.914062 89.398438 54.195312 89.421875 54.480469 L 89.421875 61.644531 L 91.136719 61.644531 C 91.996094 61.675781 92.820312 61.308594 93.378906 60.652344 C 93.953125 59.992188 94.261719 58.976562 94.300781 57.605469 L 95.238281 57.605469 L 95.238281 66.917969 L 94.300781 66.917969 C 94.257812 65.375 93.945312 64.269531 93.363281 63.605469 C 92.761719 62.929688 91.890625 62.5625 90.992188 62.605469 L 89.429688 62.605469 L 89.429688 70.601562 C 89.414062 70.855469 89.519531 71.105469 89.71875 71.269531 C 90.007812 71.449219 90.347656 71.53125 90.6875 71.5 L 93.785156 71.5 C 97.15625 71.5 99.097656 69.34375 99.609375 65.03125 L 100.589844 65.03125 L 100.238281 72.523438 L 83.714844 72.523438 L 83.714844 71.503906 L 85.085938 71.503906 C 85.480469 71.542969 85.878906 71.445312 86.210938 71.226562 C 86.4375 71.019531 86.554688 70.722656 86.535156 70.417969 L 86.535156 54.488281 C 86.558594 54.195312 86.457031 53.910156 86.253906 53.699219 C 85.996094 53.507812 85.679688 53.414062 85.359375 53.441406 L 83.71875 53.441406 L 83.71875 52.414062 Z M 83.714844 52.414062 "></path><path style=" stroke:none;fill-rule:nonzero;fill:rgb(11.764706%,11.764706%,10.980392%);fill-opacity:1;" d="M 110.070312 52.414062 L 115.035156 52.183594 L 115.035156 69.609375 C 114.988281 70.125 115.125 70.640625 115.421875 71.0625 C 115.726562 71.375 116.148438 71.53125 116.582031 71.5 L 117.460938 71.5 L 117.460938 72.519531 L 113.121094 72.519531 L 112.792969 69.921875 C 112.363281 70.75 111.742188 71.464844 110.980469 72.007812 C 110.296875 72.476562 109.484375 72.71875 108.65625 72.710938 C 107.207031 72.710938 105.84375 72.039062 104.957031 70.886719 C 103.941406 69.671875 103.433594 68.070312 103.433594 66.078125 C 103.433594 63.921875 104.085938 62.199219 105.386719 60.910156 C 106.308594 59.949219 107.582031 59.402344 108.910156 59.398438 C 109.683594 59.390625 110.445312 59.601562 111.101562 60.011719 C 111.804688 60.480469 112.386719 61.113281 112.789062 61.859375 L 112.789062 54.667969 C 112.804688 54.3125 112.640625 53.972656 112.347656 53.765625 C 111.9375 53.511719 111.453125 53.398438 110.972656 53.433594 L 110.0625 53.433594 L 110.0625 52.421875 Z M 109.28125 60.53125 C 108.351562 60.507812 107.472656 60.964844 106.957031 61.738281 C 106.382812 62.546875 106.09375 63.90625 106.09375 65.816406 C 106.09375 67.894531 106.386719 69.355469 106.976562 70.199219 C 107.460938 70.988281 108.316406 71.46875 109.242188 71.472656 C 110.226562 71.472656 111.070312 71.003906 111.769531 70.066406 C 112.472656 69.128906 112.828125 67.742188 112.835938 65.910156 C 112.835938 64.1875 112.460938 62.832031 111.710938 61.84375 C 111.171875 61.027344 110.261719 60.53125 109.28125 60.53125 Z M 109.28125 60.53125 "></path><path style=" stroke:none;fill-rule:nonzero;fill:rgb(11.764706%,11.764706%,10.980392%);fill-opacity:1;" d="M 123.171875 59.550781 L 123.171875 67.980469 C 123.171875 69.011719 123.433594 69.808594 123.953125 70.371094 C 124.46875 70.933594 125.203125 71.242188 125.960938 71.214844 C 126.964844 71.21875 127.914062 70.765625 128.542969 69.984375 C 129.261719 69.125 129.632812 68.027344 129.59375 66.90625 L 129.59375 62.152344 C 129.613281 61.757812 129.4375 61.378906 129.125 61.140625 C 128.8125 60.90625 128.214844 60.769531 127.324219 60.738281 L 127.324219 59.785156 L 131.785156 59.554688 L 131.785156 70.011719 C 131.761719 70.421875 131.90625 70.820312 132.191406 71.117188 C 132.507812 71.390625 132.917969 71.527344 133.332031 71.503906 L 134.132812 71.503906 L 134.132812 72.414062 L 129.859375 72.507812 L 129.589844 70.007812 C 128.945312 70.804688 128.171875 71.492188 127.300781 72.035156 C 126.601562 72.46875 125.796875 72.703125 124.972656 72.714844 C 123.890625 72.742188 122.851562 72.324219 122.085938 71.558594 C 121.300781 70.796875 120.910156 69.507812 120.910156 67.695312 L 120.910156 62.152344 C 120.929688 61.699219 120.707031 61.277344 120.328125 61.035156 C 120.058594 60.855469 119.5 60.757812 118.660156 60.738281 L 118.660156 59.785156 Z M 123.171875 59.550781 "></path><path style=" stroke:none;fill-rule:nonzero;fill:rgb(11.764706%,11.764706%,10.980392%);fill-opacity:1;" d="M 145.5 68.742188 L 146.382812 69.003906 C 145.679688 71.605469 144.125 72.90625 141.714844 72.90625 C 140.089844 72.960938 138.515625 72.324219 137.386719 71.148438 C 136.265625 69.976562 135.703125 68.421875 135.703125 66.484375 C 135.703125 64.238281 136.320312 62.496094 137.546875 61.257812 C 138.675781 60.066406 140.25 59.394531 141.890625 59.402344 C 143.011719 59.363281 144.109375 59.726562 144.984375 60.4375 C 145.796875 61.125 146.203125 61.890625 146.203125 62.734375 C 146.21875 63.195312 146.058594 63.648438 145.746094 63.992188 C 145.476562 64.304688 145.082031 64.488281 144.667969 64.484375 C 144.28125 64.492188 143.910156 64.339844 143.636719 64.066406 C 143.363281 63.800781 143.210938 63.429688 143.21875 63.050781 C 143.226562 62.625 143.390625 62.222656 143.679688 61.910156 C 143.792969 61.800781 143.871094 61.660156 143.898438 61.503906 C 143.859375 61.175781 143.660156 60.890625 143.367188 60.738281 C 142.9375 60.46875 142.4375 60.339844 141.929688 60.367188 C 140.945312 60.308594 139.996094 60.765625 139.421875 61.574219 C 138.609375 62.746094 138.203125 64.285156 138.203125 66.191406 C 138.203125 68.011719 138.566406 69.390625 139.289062 70.328125 C 139.925781 71.222656 140.960938 71.746094 142.058594 71.730469 C 143.601562 71.730469 144.75 70.734375 145.5 68.742188 Z M 145.5 68.742188 "></path><path style=" stroke:none;fill-rule:nonzero;fill:rgb(11.764706%,11.764706%,10.980392%);fill-opacity:1;" d="M 161.542969 71.121094 L 162.03125 71.882812 C 161.476562 72.515625 160.675781 72.886719 159.835938 72.902344 C 159.273438 72.917969 158.726562 72.742188 158.28125 72.398438 C 157.765625 71.921875 157.386719 71.316406 157.179688 70.644531 C 156.535156 71.378906 155.769531 71.992188 154.914062 72.457031 C 154.175781 72.78125 153.375 72.9375 152.566406 72.914062 C 151.261719 72.914062 150.273438 72.632812 149.59375 72.074219 C 148.9375 71.550781 148.558594 70.753906 148.578125 69.914062 C 148.578125 68.585938 149.355469 67.488281 150.90625 66.613281 C 152.457031 65.742188 154.519531 65.15625 157.097656 64.859375 L 157.097656 62.925781 C 157.097656 62.246094 156.792969 61.601562 156.269531 61.171875 C 155.6875 60.667969 154.9375 60.40625 154.167969 60.4375 C 153.457031 60.417969 152.757812 60.585938 152.132812 60.925781 C 151.726562 61.171875 151.523438 61.410156 151.523438 61.644531 C 151.570312 61.882812 151.683594 62.105469 151.847656 62.285156 C 152.078125 62.558594 152.214844 62.894531 152.242188 63.25 C 152.253906 63.621094 152.113281 63.984375 151.847656 64.246094 C 151.570312 64.511719 151.199219 64.652344 150.816406 64.632812 C 150.394531 64.644531 149.980469 64.476562 149.6875 64.167969 C 149.378906 63.855469 149.214844 63.425781 149.230469 62.984375 C 149.230469 62.089844 149.734375 61.269531 150.746094 60.527344 C 151.753906 59.785156 153.074219 59.414062 154.710938 59.414062 C 156.222656 59.414062 157.375 59.742188 158.171875 60.394531 C 158.921875 60.964844 159.363281 61.855469 159.363281 62.800781 L 159.363281 69.761719 C 159.332031 70.234375 159.433594 70.707031 159.664062 71.121094 C 159.824219 71.398438 160.117188 71.570312 160.4375 71.570312 C 160.84375 71.546875 161.234375 71.386719 161.542969 71.121094 Z M 157.097656 65.75 C 154.804688 66.066406 153.175781 66.582031 152.214844 67.300781 C 151.5 67.84375 151.097656 68.710938 151.144531 69.609375 C 151.109375 70.207031 151.308594 70.796875 151.703125 71.246094 C 152.078125 71.644531 152.605469 71.859375 153.152344 71.835938 C 154.207031 71.84375 155.214844 71.402344 155.925781 70.621094 C 156.710938 69.804688 157.136719 68.703125 157.101562 67.570312 L 157.101562 65.75 Z M 157.097656 65.75 "></path><path style=" stroke:none;fill-rule:nonzero;fill:rgb(11.764706%,11.764706%,10.980392%);fill-opacity:1;" d="M 166.917969 54.589844 L 167.824219 54.589844 L 167.824219 59.785156 L 171.933594 59.785156 L 171.933594 61.035156 L 167.824219 61.035156 L 167.824219 69.203125 C 167.785156 69.789062 167.964844 70.367188 168.324219 70.828125 C 168.644531 71.199219 169.113281 71.40625 169.601562 71.394531 C 170.234375 71.386719 170.820312 71.066406 171.175781 70.539062 C 171.609375 69.964844 171.863281 69.023438 171.933594 67.710938 L 172.84375 67.710938 C 172.789062 69.40625 172.402344 70.664062 171.6875 71.480469 C 170.996094 72.292969 169.976562 72.746094 168.910156 72.710938 C 168.011719 72.761719 167.128906 72.449219 166.457031 71.847656 C 165.855469 71.253906 165.535156 70.429688 165.566406 69.585938 L 165.566406 61.035156 L 163.355469 61.035156 L 163.355469 60.082031 C 164.257812 59.96875 165.078125 59.515625 165.660156 58.816406 C 166.433594 57.8125 166.855469 56.402344 166.917969 54.589844 Z M 166.917969 54.589844 "></path><path style=" stroke:none;fill-rule:nonzero;fill:rgb(11.764706%,11.764706%,10.980392%);fill-opacity:1;" d="M 174.132812 59.785156 L 179.191406 59.632812 L 179.191406 70.589844 C 179.167969 70.824219 179.246094 71.058594 179.410156 71.230469 C 179.628906 71.414062 179.90625 71.511719 180.195312 71.5 L 181.632812 71.5 L 181.632812 72.519531 L 174.40625 72.519531 L 174.40625 71.5 L 175.746094 71.5 C 176.0625 71.550781 176.382812 71.445312 176.613281 71.222656 C 176.839844 70.996094 176.945312 70.675781 176.898438 70.359375 L 176.898438 62.335938 C 176.933594 61.90625 176.773438 61.488281 176.464844 61.1875 C 176.097656 60.90625 175.636719 60.769531 175.175781 60.800781 L 174.125 60.800781 L 174.125 59.785156 Z M 177.664062 52.183594 C 178.507812 52.207031 179.183594 52.890625 179.199219 53.734375 C 179.1875 54.570312 178.511719 55.238281 177.679688 55.246094 C 176.835938 55.246094 176.148438 54.558594 176.148438 53.714844 C 176.148438 52.867188 176.835938 52.183594 177.679688 52.183594 Z M 177.664062 52.183594 "></path><path style=" stroke:none;fill-rule:nonzero;fill:rgb(11.764706%,11.764706%,10.980392%);fill-opacity:1;" d="M 189.121094 59.402344 C 190.757812 59.371094 192.328125 60.046875 193.433594 61.257812 C 194.601562 62.496094 195.183594 64.125 195.183594 66.148438 C 195.222656 67.382812 194.953125 68.609375 194.402344 69.714844 C 193.894531 70.6875 193.125 71.496094 192.179688 72.046875 C 191.238281 72.613281 190.164062 72.910156 189.066406 72.90625 C 187.464844 72.925781 185.933594 72.238281 184.882812 71.027344 C 183.742188 69.777344 183.167969 68.15625 183.164062 66.160156 C 183.164062 64.167969 183.738281 62.539062 184.890625 61.28125 C 185.960938 60.066406 187.503906 59.382812 189.121094 59.402344 Z M 189.121094 60.371094 C 188.105469 60.371094 187.164062 60.890625 186.625 61.75 C 185.972656 62.671875 185.648438 64.125 185.648438 66.109375 C 185.648438 68.09375 185.96875 69.570312 186.617188 70.539062 C 187.152344 71.414062 188.097656 71.945312 189.121094 71.945312 C 190.160156 71.953125 191.132812 71.421875 191.6875 70.539062 C 192.34375 69.605469 192.671875 68.082031 192.671875 65.976562 C 192.671875 64.007812 192.347656 62.585938 191.703125 61.707031 C 191.121094 60.855469 190.148438 60.351562 189.121094 60.371094 Z M 189.121094 60.371094 "></path><path style=" stroke:none;fill-rule:nonzero;fill:rgb(11.764706%,11.764706%,10.980392%);fill-opacity:1;" d="M 197.015625 59.785156 L 201.21875 59.523438 C 201.410156 60.449219 201.535156 61.390625 201.597656 62.332031 C 202.089844 61.488281 202.78125 60.773438 203.613281 60.253906 C 204.40625 59.785156 205.316406 59.539062 206.238281 59.550781 C 206.96875 59.527344 207.695312 59.699219 208.339844 60.046875 C 208.945312 60.417969 209.425781 60.964844 209.710938 61.617188 C 210.0625 62.367188 210.238281 63.191406 210.226562 64.023438 L 210.226562 70.222656 C 210.191406 70.578125 210.304688 70.9375 210.539062 71.207031 C 210.839844 71.433594 211.214844 71.535156 211.589844 71.5 L 212.480469 71.5 L 212.480469 72.519531 L 205.804688 72.519531 L 205.804688 71.5 L 206.441406 71.5 C 206.875 71.542969 207.3125 71.441406 207.6875 71.214844 C 207.929688 71 208.058594 70.683594 208.039062 70.359375 L 208.039062 64.90625 C 208.039062 63.71875 207.859375 62.839844 207.496094 62.269531 C 207.011719 61.464844 206.125 60.996094 205.191406 61.046875 C 204.191406 61.035156 203.246094 61.492188 202.632812 62.285156 C 201.917969 63.199219 201.554688 64.34375 201.609375 65.503906 L 201.609375 70.222656 C 201.570312 70.582031 201.6875 70.9375 201.925781 71.207031 C 202.230469 71.429688 202.605469 71.535156 202.980469 71.5 L 203.863281 71.5 L 203.863281 72.519531 L 197.132812 72.519531 L 197.132812 71.5 L 198.015625 71.5 C 198.375 71.523438 198.730469 71.429688 199.027344 71.230469 C 199.246094 71.074219 199.375 70.820312 199.375 70.546875 L 199.375 62.324219 C 199.410156 61.871094 199.25 61.421875 198.933594 61.089844 C 198.582031 60.789062 198.128906 60.636719 197.667969 60.667969 L 197.015625 60.667969 Z M 197.015625 59.785156 "></path><path style=" stroke:none;fill-rule:nonzero;fill:rgb(11.764706%,11.764706%,10.980392%);fill-opacity:1;" d="M 230.496094 51.992188 L 231.40625 51.992188 L 238.597656 70.386719 C 238.890625 71.132812 239.480469 71.5 240.375 71.5 L 241 71.5 L 241 72.519531 L 232.996094 72.519531 L 232.996094 71.5 L 233.632812 71.5 C 234.230469 71.539062 234.828125 71.445312 235.386719 71.230469 C 235.605469 71.121094 235.746094 70.894531 235.734375 70.644531 C 235.734375 70.480469 235.703125 70.3125 235.640625 70.15625 L 233.996094 65.910156 L 226.0625 65.910156 L 225.128906 68.367188 C 224.917969 68.859375 224.796875 69.382812 224.761719 69.914062 C 224.769531 70.375 225 70.800781 225.378906 71.058594 C 225.910156 71.40625 226.539062 71.574219 227.175781 71.53125 L 227.855469 71.53125 L 227.855469 72.550781 L 220.582031 72.550781 L 220.582031 71.53125 C 221.238281 71.566406 221.882812 71.390625 222.425781 71.023438 C 222.878906 70.679688 223.292969 70.035156 223.675781 69.082031 Z M 230.105469 55.855469 L 226.503906 64.816406 L 233.589844 64.816406 Z M 230.105469 55.855469 "></path><path style=" stroke:none;fill-rule:nonzero;fill:rgb(11.764706%,11.764706%,10.980392%);fill-opacity:1;" d="M 246.117188 59.550781 L 246.117188 67.980469 C 246.117188 69.011719 246.375 69.808594 246.894531 70.371094 C 247.410156 70.933594 248.144531 71.242188 248.90625 71.214844 C 249.90625 71.21875 250.855469 70.765625 251.484375 69.984375 C 252.203125 69.125 252.578125 68.027344 252.535156 66.90625 L 252.535156 62.152344 C 252.554688 61.757812 252.378906 61.378906 252.066406 61.140625 C 251.753906 60.90625 251.15625 60.769531 250.269531 60.738281 L 250.269531 59.785156 L 254.730469 59.554688 L 254.730469 70.011719 C 254.703125 70.421875 254.851562 70.820312 255.136719 71.117188 C 255.449219 71.390625 255.859375 71.53125 256.273438 71.503906 L 257.074219 71.503906 L 257.074219 72.414062 L 252.800781 72.507812 L 252.53125 70.007812 C 251.886719 70.804688 251.113281 71.492188 250.242188 72.035156 C 249.542969 72.46875 248.738281 72.703125 247.914062 72.714844 C 246.835938 72.742188 245.792969 72.324219 245.03125 71.558594 C 244.246094 70.796875 243.851562 69.507812 243.851562 67.695312 L 243.851562 62.152344 C 243.875 61.699219 243.652344 61.277344 243.269531 61.035156 C 243 60.855469 242.441406 60.757812 241.601562 60.738281 L 241.601562 59.785156 Z M 246.117188 59.550781 "></path><path style=" stroke:none;fill-rule:nonzero;fill:rgb(11.764706%,11.764706%,10.980392%);fill-opacity:1;" d="M 262.082031 54.589844 L 262.988281 54.589844 L 262.988281 59.785156 L 267.097656 59.785156 L 267.097656 61.035156 L 262.988281 61.035156 L 262.988281 69.203125 C 262.949219 69.789062 263.128906 70.367188 263.488281 70.828125 C 263.808594 71.199219 264.277344 71.40625 264.765625 71.394531 C 265.398438 71.386719 265.984375 71.066406 266.339844 70.539062 C 266.773438 69.964844 267.027344 69.023438 267.097656 67.710938 L 268.007812 67.710938 C 267.957031 69.40625 267.570312 70.664062 266.855469 71.480469 C 266.160156 72.292969 265.140625 72.746094 264.074219 72.710938 C 263.175781 72.761719 262.292969 72.449219 261.621094 71.847656 C 261.019531 71.253906 260.699219 70.429688 260.730469 69.585938 L 260.730469 61.035156 L 258.519531 61.035156 L 258.519531 60.082031 C 259.421875 59.96875 260.242188 59.515625 260.824219 58.816406 C 261.597656 57.8125 262.019531 56.402344 262.082031 54.589844 Z M 262.082031 54.589844 "></path><path style=" stroke:none;fill-rule:nonzero;fill:rgb(11.764706%,11.764706%,10.980392%);fill-opacity:1;" d="M 269.214844 52.414062 L 274.03125 52.183594 L 274.03125 62.015625 C 274.609375 61.226562 275.34375 60.5625 276.183594 60.066406 C 276.933594 59.640625 277.777344 59.417969 278.636719 59.421875 C 279.410156 59.410156 280.171875 59.613281 280.835938 60.003906 C 281.417969 60.402344 281.871094 60.96875 282.132812 61.625 C 282.507812 62.484375 282.691406 63.417969 282.667969 64.355469 L 282.667969 70.402344 C 282.640625 70.71875 282.746094 71.027344 282.964844 71.253906 C 283.238281 71.449219 283.570312 71.542969 283.902344 71.515625 L 284.988281 71.515625 L 284.988281 72.535156 L 278.113281 72.535156 L 278.113281 71.515625 L 278.875 71.515625 C 279.292969 71.558594 279.714844 71.460938 280.074219 71.238281 C 280.316406 71.03125 280.445312 70.722656 280.425781 70.402344 L 280.425781 64.339844 C 280.480469 63.445312 280.207031 62.5625 279.65625 61.859375 C 279.175781 61.277344 278.453125 60.949219 277.699219 60.96875 C 277.085938 60.964844 276.484375 61.140625 275.964844 61.46875 C 275.386719 61.851562 274.921875 62.378906 274.609375 62.996094 C 274.242188 63.660156 274.050781 64.40625 274.050781 65.164062 L 274.050781 70.25 C 274.015625 70.597656 274.117188 70.941406 274.335938 71.214844 C 274.597656 71.429688 274.933594 71.53125 275.269531 71.5 L 276.355469 71.5 L 276.355469 72.519531 L 269.625 72.519531 L 269.625 71.5 L 270.386719 71.5 C 270.777344 71.539062 271.167969 71.429688 271.484375 71.195312 C 271.722656 70.9375 271.839844 70.597656 271.8125 70.25 L 271.8125 55.050781 C 271.847656 54.605469 271.691406 54.164062 271.382812 53.835938 C 271.039062 53.546875 270.59375 53.40625 270.144531 53.4375 L 269.222656 53.4375 L 269.222656 52.414062 Z M 269.214844 52.414062 "></path><path style=" stroke:none;fill-rule:nonzero;fill:rgb(11.764706%,11.764706%,10.980392%);fill-opacity:1;" d="M 292.503906 59.402344 C 294.136719 59.371094 295.707031 60.046875 296.808594 61.257812 C 297.976562 62.496094 298.558594 64.125 298.558594 66.148438 C 298.597656 67.382812 298.328125 68.609375 297.777344 69.714844 C 297.269531 70.6875 296.496094 71.496094 295.554688 72.046875 C 294.613281 72.613281 293.539062 72.910156 292.441406 72.90625 C 290.839844 72.925781 289.308594 72.238281 288.257812 71.027344 C 287.113281 69.777344 286.542969 68.15625 286.539062 66.160156 C 286.539062 64.167969 287.113281 62.539062 288.265625 61.28125 C 289.335938 60.0625 290.886719 59.378906 292.503906 59.402344 Z M 292.503906 60.371094 C 291.492188 60.371094 290.550781 60.890625 290.007812 61.75 C 289.359375 62.671875 289.03125 64.125 289.03125 66.109375 C 289.03125 68.09375 289.355469 69.570312 290.003906 70.539062 C 290.535156 71.414062 291.484375 71.945312 292.503906 71.945312 C 293.546875 71.953125 294.515625 71.421875 295.074219 70.539062 C 295.730469 69.605469 296.058594 68.082031 296.058594 65.976562 C 296.058594 64.007812 295.734375 62.585938 295.085938 61.707031 C 294.507812 60.855469 293.535156 60.351562 292.503906 60.371094 Z M 292.503906 60.371094 "></path><path style=" stroke:none;fill-rule:nonzero;fill:rgb(11.764706%,11.764706%,10.980392%);fill-opacity:1;" d="M 300.191406 59.785156 L 304.75 59.550781 L 304.75 64.703125 C 305.238281 63.007812 305.820312 61.726562 306.5 60.859375 C 307.097656 60.03125 308.054688 59.546875 309.074219 59.550781 C 309.683594 59.523438 310.28125 59.75 310.71875 60.183594 C 311.144531 60.640625 311.367188 61.253906 311.335938 61.875 C 311.367188 62.355469 311.21875 62.832031 310.921875 63.207031 C 310.664062 63.519531 310.277344 63.691406 309.871094 63.683594 C 309.5 63.695312 309.140625 63.546875 308.886719 63.273438 C 308.625 62.96875 308.492188 62.574219 308.515625 62.171875 C 308.515625 61.875 308.589844 61.585938 308.734375 61.328125 C 308.820312 61.199219 308.890625 61.058594 308.9375 60.90625 C 308.9375 60.769531 308.847656 60.703125 308.675781 60.703125 C 308.191406 60.757812 307.742188 60.992188 307.414062 61.355469 C 306.710938 62.050781 306.191406 62.910156 305.90625 63.855469 C 305.441406 65.125 305.164062 66.460938 305.09375 67.8125 L 305.09375 70.542969 C 305.082031 70.816406 305.203125 71.082031 305.421875 71.246094 C 305.757812 71.4375 306.144531 71.523438 306.53125 71.492188 L 308.148438 71.492188 L 308.148438 72.511719 L 300.277344 72.511719 L 300.277344 71.492188 L 301.539062 71.492188 C 301.878906 71.515625 302.21875 71.425781 302.503906 71.238281 C 302.703125 71.105469 302.824219 70.878906 302.828125 70.636719 L 302.828125 62.523438 C 302.871094 62.039062 302.730469 61.554688 302.433594 61.171875 C 302.140625 60.871094 301.730469 60.714844 301.3125 60.742188 L 300.199219 60.742188 L 300.199219 59.785156 Z M 300.191406 59.785156 "></path><path style=" stroke:none;fill-rule:nonzero;fill:rgb(11.764706%,11.764706%,10.980392%);fill-opacity:1;" d="M 312.480469 59.785156 L 317.542969 59.632812 L 317.542969 70.589844 C 317.519531 70.824219 317.597656 71.058594 317.757812 71.230469 C 317.980469 71.414062 318.261719 71.511719 318.546875 71.5 L 319.984375 71.5 L 319.984375 72.519531 L 312.753906 72.519531 L 312.753906 71.5 L 314.097656 71.5 C 314.414062 71.550781 314.734375 71.445312 314.960938 71.222656 C 315.191406 70.996094 315.296875 70.675781 315.25 70.359375 L 315.25 62.335938 C 315.28125 61.90625 315.125 61.488281 314.816406 61.1875 C 314.449219 60.902344 313.988281 60.765625 313.527344 60.800781 L 312.476562 60.800781 Z M 316.011719 52.183594 C 316.855469 52.207031 317.527344 52.890625 317.546875 53.734375 C 317.53125 54.570312 316.855469 55.238281 316.023438 55.246094 C 315.40625 55.257812 314.839844 54.886719 314.605469 54.3125 C 314.367188 53.738281 314.503906 53.078125 314.953125 52.648438 C 315.226562 52.351562 315.609375 52.183594 316.011719 52.183594 Z M 316.011719 52.183594 "></path><path style=" stroke:none;fill-rule:nonzero;fill:rgb(11.764706%,11.764706%,10.980392%);fill-opacity:1;" d="M 324.839844 54.589844 L 325.75 54.589844 L 325.75 59.785156 L 329.859375 59.785156 L 329.859375 61.035156 L 325.734375 61.035156 L 325.734375 69.203125 C 325.699219 69.789062 325.878906 70.367188 326.242188 70.824219 C 326.5625 71.195312 327.03125 71.402344 327.519531 71.390625 C 328.152344 71.382812 328.738281 71.0625 329.09375 70.535156 C 329.527344 69.960938 329.78125 69.019531 329.851562 67.707031 L 330.761719 67.707031 C 330.707031 69.402344 330.320312 70.660156 329.605469 71.480469 C 328.914062 72.289062 327.894531 72.742188 326.828125 72.707031 C 325.929688 72.757812 325.046875 72.445312 324.375 71.84375 C 323.773438 71.25 323.453125 70.429688 323.484375 69.582031 L 323.484375 61.035156 L 321.273438 61.035156 L 321.273438 60.082031 C 322.175781 59.96875 322.996094 59.515625 323.578125 58.816406 C 324.347656 57.8125 324.769531 56.402344 324.839844 54.589844 Z M 324.839844 54.589844 "></path><path style=" stroke:none;fill-rule:nonzero;fill:rgb(11.764706%,11.764706%,10.980392%);fill-opacity:1;" d="M 332 59.785156 L 338.089844 59.785156 L 338.089844 60.707031 L 337.519531 60.707031 C 337.144531 60.671875 336.765625 60.746094 336.425781 60.917969 C 336.234375 61.054688 336.125 61.285156 336.136719 61.523438 C 336.136719 61.644531 336.164062 61.761719 336.214844 61.871094 L 339.757812 69.527344 L 342.390625 63.175781 C 342.574219 62.753906 342.667969 62.304688 342.675781 61.84375 C 342.6875 61.535156 342.539062 61.238281 342.28125 61.0625 C 342.019531 60.875 341.492188 60.757812 340.707031 60.710938 L 340.707031 59.785156 L 346 59.785156 L 346 60.710938 C 344.976562 60.808594 344.289062 61.269531 343.941406 62.082031 L 339.238281 73.046875 C 338.4375 74.921875 337.636719 76.203125 336.832031 76.886719 C 336.121094 77.550781 335.1875 77.925781 334.214844 77.941406 C 333.621094 77.96875 333.035156 77.769531 332.582031 77.382812 C 332.183594 77.039062 331.957031 76.535156 331.964844 76.007812 C 331.953125 75.636719 332.089844 75.273438 332.34375 75.003906 C 332.589844 74.746094 332.9375 74.601562 333.292969 74.613281 C 333.617188 74.605469 333.933594 74.730469 334.164062 74.960938 C 334.390625 75.171875 334.515625 75.46875 334.511719 75.777344 C 334.507812 75.914062 334.492188 76.050781 334.460938 76.183594 C 334.433594 76.28125 334.414062 76.382812 334.40625 76.484375 C 334.40625 76.703125 334.546875 76.808594 334.828125 76.808594 C 335.1875 76.792969 335.535156 76.679688 335.835938 76.484375 C 336.261719 76.214844 336.621094 75.855469 336.890625 75.429688 C 337.515625 74.398438 338.089844 73.332031 338.601562 72.238281 L 333.777344 61.875 C 333.636719 61.554688 333.417969 61.277344 333.136719 61.070312 C 332.792969 60.867188 332.40625 60.746094 332.007812 60.71875 L 332.007812 59.796875 Z M 332 59.785156 "></path><path style=" stroke:none;fill-rule:nonzero;fill:rgb(100%,83.529412%,0.392157%);fill-opacity:1;" d="M 24.101562 48.363281 L 72.300781 72.523438 L 0 72.523438 Z M 24.101562 48.363281 "></path><path style=" stroke:none;fill-rule:nonzero;fill:rgb(96.862745%,65.490196%,3.137255%);fill-opacity:1;" d="M 24.101562 48.363281 L 72.300781 72.523438 L 48.199219 24.210938 Z M 24.101562 48.363281 "></path><path style=" stroke:none;fill-rule:nonzero;fill:rgb(91.764706%,35.686275%,4.705882%);fill-opacity:1;" d="M 72.300781 0.0585938 L 72.300781 72.523438 L 48.199219 24.210938 Z M 72.300781 0.0585938 "></path><path style=" stroke:none;fill-rule:nonzero;fill:rgb(0%,65.490196%,81.568627%);fill-opacity:1;" d="M 24.101562 48.363281 L 0 0.0585938 L 0 72.523438 Z M 24.101562 48.363281 "></path><path style=" stroke:none;fill-rule:nonzero;fill:rgb(52.54902%,12.156863%,50.588235%);fill-opacity:1;" d="M 24.101562 48.363281 L 0 0.0585938 L 48.199219 24.210938 Z M 24.101562 48.363281 "></path><path style=" stroke:none;fill-rule:nonzero;fill:rgb(77.254902%,9.019608%,12.941176%);fill-opacity:1;" d="M 72.300781 0.0585938 L 0 0.0585938 L 48.199219 24.210938 Z M 72.300781 0.0585938 "></path></g></svg>