<svg xmlns="http://www.w3.org/2000/svg" width="1049.631" height="384.848" viewBox="0 0 1049.631 384.848"><g id="Logo_ABS-Malta" data-name="Logo ABS-Malta" transform="translate(-17.693 -54.077)"><g id="Groupe_1" data-name="Groupe 1"><path id="Trac&#xE9;_1" data-name="Trac&#xE9; 1" d="M167.026,194.131H193.75l49.823,135.53H216.467L205.2,295.875H155.442l-11.323,33.786H117.013Zm32.007,83.227-18.644-55.931-18.741,55.931Z" fill="#191913"></path><path id="Trac&#xE9;_2" data-name="Trac&#xE9; 2" d="M337.492,229.635a29.758,29.758,0,0,0-4.868-3.531,75.868,75.868,0,0,0-8.59-4.486,67.677,67.677,0,0,0-10.977-3.818,47.987,47.987,0,0,0-12.025-1.528q-10.693,0-16.13,3.9t-5.44,11.3a11.416,11.416,0,0,0,3.435,8.741q3.435,3.227,10.308,5.507t17.18,4.938a120.623,120.623,0,0,1,23.194,7.882,37.41,37.41,0,0,1,15.079,12.158q5.249,7.5,5.25,20.037,0,10.638-4.009,18.235a34.548,34.548,0,0,1-10.975,12.44,47.174,47.174,0,0,1-16.036,7.029,81.858,81.858,0,0,1-19.183,2.182,99.348,99.348,0,0,1-20.234-2.1A103.511,103.511,0,0,1,264.1,322.5a96.061,96.061,0,0,1-17.276-9.447l11.644-22.718a37.478,37.478,0,0,0,6.109,4.486,81.54,81.54,0,0,0,10.689,5.535,88.835,88.835,0,0,0,13.745,4.679,60.5,60.5,0,0,0,15.079,1.909q10.881,0,16.226-3.494a11.5,11.5,0,0,0,5.345-10.287,11.739,11.739,0,0,0-4.294-9.6,37.791,37.791,0,0,0-12.122-6.087q-7.828-2.559-18.516-5.414a105.7,105.7,0,0,1-21.475-8.173,33.459,33.459,0,0,1-12.789-11.31q-4.3-6.747-4.3-17.016,0-13.876,6.681-23.286a41.672,41.672,0,0,1,17.944-14.256,62.557,62.557,0,0,1,25.006-4.849,75.006,75.006,0,0,1,18.039,2.1,89.027,89.027,0,0,1,15.94,5.535,94.184,94.184,0,0,1,13.361,7.444Z" fill="#191913"></path><path id="Trac&#xE9;_3" data-name="Trac&#xE9; 3" d="M365.551,260.751a69.214,69.214,0,0,1,17.657-46.2,64.167,64.167,0,0,1,49.154-21.377q18.705,0,32.356,8.208a51.147,51.147,0,0,1,20.139,21.377L464.813,236.7a31.464,31.464,0,0,0-8.972-12.025,35.385,35.385,0,0,0-11.93-6.3,43.073,43.073,0,0,0-12.312-1.911,35.523,35.523,0,0,0-17.276,4.01,37.511,37.511,0,0,0-12.217,10.5,47.212,47.212,0,0,0-7.349,14.507,54.572,54.572,0,0,0-2.482,16.226,52.089,52.089,0,0,0,2.864,17.084,47.143,47.143,0,0,0,8.113,14.7,38.807,38.807,0,0,0,12.6,10.116,35.152,35.152,0,0,0,16.13,3.722,40.79,40.79,0,0,0,12.6-2.1,36.252,36.252,0,0,0,12.027-6.683,33.526,33.526,0,0,0,8.972-12.025l21.38,12.6A41.9,41.9,0,0,1,473.69,316.3a65.565,65.565,0,0,1-20.235,10.69,71.624,71.624,0,0,1-22.238,3.627,57.861,57.861,0,0,1-26.438-6.014,67.887,67.887,0,0,1-20.712-16.032,75.468,75.468,0,0,1-13.648-22.525A69.221,69.221,0,0,1,365.551,260.751Z" fill="#191913"></path><path id="Trac&#xE9;_4" data-name="Trac&#xE9; 4" d="M598.815,306.562v23.1H504.706V194.131H597.1v23.1H531.05v32.641h56.884v21.38H531.05v35.314Z" fill="#191913"></path><path id="Trac&#xE9;_5" data-name="Trac&#xE9; 5" d="M645.773,242.614v87.047H619.43V194.131h21.188l69.866,89.336V194.321h26.151v135.34H714.874Z" fill="#191913"></path><path id="Trac&#xE9;_6" data-name="Trac&#xE9; 6" d="M756.867,260.751a69.215,69.215,0,0,1,17.657-46.2,64.163,64.163,0,0,1,49.153-21.377q18.707,0,32.356,8.208a51.149,51.149,0,0,1,20.14,21.377L856.129,236.7a31.465,31.465,0,0,0-8.972-12.025,35.393,35.393,0,0,0-11.93-6.3,43.083,43.083,0,0,0-12.312-1.911,35.523,35.523,0,0,0-17.276,4.01,37.511,37.511,0,0,0-12.217,10.5,47.212,47.212,0,0,0-7.349,14.507,54.573,54.573,0,0,0-2.482,16.226,52.063,52.063,0,0,0,2.864,17.084,47.123,47.123,0,0,0,8.113,14.7,38.786,38.786,0,0,0,12.6,10.116,35.149,35.149,0,0,0,16.13,3.722,40.79,40.79,0,0,0,12.6-2.1,36.252,36.252,0,0,0,12.027-6.683,33.526,33.526,0,0,0,8.972-12.025l21.38,12.6a41.89,41.89,0,0,1-13.268,17.18,65.559,65.559,0,0,1-20.234,10.69,71.624,71.624,0,0,1-22.238,3.627,57.866,57.866,0,0,1-26.439-6.014,67.882,67.882,0,0,1-20.711-16.032,75.468,75.468,0,0,1-13.648-22.525A69.221,69.221,0,0,1,756.867,260.751Z" fill="#191913"></path><path id="Trac&#xE9;_7" data-name="Trac&#xE9; 7" d="M896.024,329.661V194.131h26.342v135.53Z" fill="#191913"></path><path id="Trac&#xE9;_8" data-name="Trac&#xE9; 8" d="M987.458,194.131h26.723L1064,329.661H1036.9l-11.261-33.786H975.871L964.55,329.661H937.444Zm32,83.227-18.644-55.931-18.74,55.931Z" fill="#191913"></path></g><g id="Groupe_4" data-name="Groupe 4"><g id="Groupe_2" data-name="Groupe 2"><path id="Trac&#xE9;_9" data-name="Trac&#xE9; 9" d="M147.973,171.469,53.806,54.077,29.094,73.911v3.681L40.656,66.036Z" fill="#cd0732"></path><path id="Trac&#xE9;_10" data-name="Trac&#xE9; 10" d="M51.416,198.157,22.023,157.431,27.9,78.853l-10.2,9.128,2.015,83.674,27.524,27.7,100.74-27.89Z" fill="#cd0732"></path><path id="Trac&#xE9;_11" data-name="Trac&#xE9; 11" d="M51.416,198.157l96.557-26.688L40.656,66.036,27.9,78.853l-5.873,78.578Z" fill="#a3021b"></path></g><g id="Groupe_3" data-name="Groupe 3"><path id="Trac&#xE9;_12" data-name="Trac&#xE9; 12" d="M147.973,171.469,24.992,205.551,24.5,265.726l11.625,7.059-5.331-52.019Z" fill="none" stroke="#040405" stroke-linecap="square" stroke-linejoin="bevel" stroke-width="1.3"></path><path id="Trac&#xE9;_13" data-name="Trac&#xE9; 13" d="M59.53,287.374,36.123,272.785l.414,5.955,38.581,18.394,72.854-125.665Z" fill="none" stroke="#040405" stroke-linecap="square" stroke-linejoin="bevel" stroke-width="1.3"></path><path id="Trac&#xE9;_14" data-name="Trac&#xE9; 14" d="M147.482,171.7,30.793,220.766l5.331,52.019L59.53,287.374Z" fill="none" stroke="#040405" stroke-linecap="square" stroke-linejoin="bevel" stroke-width="1.3"></path></g></g><g id="Groupe_5" data-name="Groupe 5"><path id="Trac&#xE9;_15" data-name="Trac&#xE9; 15" d="M792.392,438.925V389.381l-19.35,36.891h-8.187l-19.349-36.891v49.544H730.834V363.439h15.735L768.9,406.392l22.539-42.953h15.628v75.486Z" fill="#cd0731"></path><path id="Trac&#xE9;_16" data-name="Trac&#xE9; 16" d="M843.316,363.439H858.2l27.748,75.486h-15.1l-6.273-18.819H836.864l-6.3,18.819h-15.1Zm17.827,46.355-10.384-31.151-10.438,31.151Z" fill="#cd0731"></path><path id="Trac&#xE9;_17" data-name="Trac&#xE9; 17" d="M894.241,438.925V363.439h14.672v62.622H947.4v12.864Z" fill="#cd0731"></path><path id="Trac&#xE9;_18" data-name="Trac&#xE9; 18" d="M1001.834,376.3H977.7v62.621H963.135V376.3H939V363.439h62.833Z" fill="#cd0731"></path><path id="Trac&#xE9;_19" data-name="Trac&#xE9; 19" d="M1024.691,363.439h14.884l27.749,75.486h-15.1l-6.274-18.819h-27.715l-6.3,18.819h-15.1Zm17.827,46.355-10.384-31.151L1021.7,409.794Z" fill="#cd0731"></path></g></g></svg>